<?xml version="1.0" encoding="UTF-8" standalone="no"?>
<!DOCTYPE svg PUBLIC "-//W3C//DTD SVG 1.1//EN" "http://www.w3.org/Graphics/SVG/1.1/DTD/svg11.dtd">
<svg width="100%" height="100%" viewBox="0 0 254 50" version="1.1" xmlns="http://www.w3.org/2000/svg" xmlns:xlink="http://www.w3.org/1999/xlink" xml:space="preserve" xmlns:serif="http://www.serif.com/" style="fill-rule:evenodd;clip-rule:evenodd;stroke-linecap:round;stroke-linejoin:round;stroke-miterlimit:1.5;">
    <g transform="matrix(1,0,0,0.685323,-121.427,-0.175322)">
        <path d="M227.954,66.643C245.385,65.035 253.467,63.333 270.174,62.143C278.832,61.526 290.554,59.738 299.671,57.27C309.3,54.664 322.137,47.243 331.491,44.161C332.497,43.829 329.374,44.092 328.315,44.062C326.32,44.006 324.327,43.89 322.331,43.903C315.69,43.944 308.978,43.244 302.409,44.223C246.371,52.573 248.301,50.74 195.827,49.746C183.368,49.51 178.045,48.789 166.006,45.328C162.692,44.375 159.911,43.133 158.347,39.852C157.928,38.972 159.962,38.476 160.937,38.492C162.451,38.517 163.955,38.817 165.47,38.808C170.526,38.777 175.577,38.411 180.633,38.374C195.431,38.267 210.233,38.709 225.028,38.374C260.922,37.562 294.605,35.624 329.545,28.091C342.013,25.402 361.528,22.379 371.13,11.79C371.857,10.988 368.967,11.888 367.888,11.963C365.662,12.119 363.427,12.195 361.214,12.481C354.749,13.315 348.362,14.79 341.865,15.322C322.9,16.877 303.893,17.962 284.88,18.737C231.099,20.929 178.936,12.049 125.607,6.827" style="fill:none;stroke:black;stroke-width:4.86px;"/>
    </g>
</svg>
