<?xml version="1.0" encoding="UTF-8" standalone="no"?>
<!DOCTYPE svg PUBLIC "-//W3C//DTD SVG 1.1//EN" "http://www.w3.org/Graphics/SVG/1.1/DTD/svg11.dtd">
<svg width="100%" height="100%" viewBox="0 0 16 16" version="1.1" xmlns="http://www.w3.org/2000/svg" xmlns:xlink="http://www.w3.org/1999/xlink" xml:space="preserve" xmlns:serif="http://www.serif.com/" style="fill-rule:evenodd;clip-rule:evenodd;stroke-linejoin:round;stroke-miterlimit:2;">
    <g transform="matrix(0.8063,0,0,1.01604,5.95801,-0.256567)">
        <path d="M4.989,5.209L9.978,16L0,16L4.989,5.209Z"/>
    </g>
    <g transform="matrix(1.13953,-0.735064,0.205834,0.319094,-6.81149,11.0008)">
        <path d="M6.24,7.569C7.177,6.619 8.424,5.563 9.726,6.58C10.104,6.875 10.456,7.204 10.794,7.545C11.166,7.977 11.543,8.385 11.95,8.761C13.405,10.106 14.909,9.334 16.168,8.24L15.82,3.122C14.775,4.03 13.527,4.778 12.319,3.662C11.939,3.31 11.586,2.927 11.248,2.533L11.221,2.503C10.848,2.125 10.459,1.761 10.041,1.434C8.471,0.209 6.966,1.357 5.837,2.503L6.24,7.569Z"/>
    </g>
</svg>
